<svg width="172" height="25" viewBox="0 0 172 25" fill="none" xmlns="http://www.w3.org/2000/svg">
<path d="M11.64 0.895998C13.0693 0.895998 14.232 1.10933 15.128 1.536C16.024 1.94133 16.8453 2.42133 17.592 2.976C17.848 3.18933 18.0613 3.296 18.232 3.296C18.6373 3.296 18.904 2.64533 19.032 1.344H19.768C19.7253 2.15467 19.6933 3.14667 19.672 4.32C19.6507 5.49333 19.64 7.04 19.64 8.96H18.904C18.7547 7.808 18.5413 6.77333 18.264 5.856C17.9867 4.93867 17.4853 4.16 16.76 3.52C16.2053 2.92267 15.5013 2.464 14.648 2.144C13.816 1.80267 12.9733 1.632 12.12 1.632C10.9893 1.632 9.99733 1.93067 9.144 2.528C8.312 3.104 7.608 3.904 7.032 4.928C6.47733 5.93067 6.06133 7.104 5.784 8.448C5.50667 9.77067 5.368 11.1893 5.368 12.704C5.368 16.544 5.92267 19.36 7.032 21.152C8.16267 22.9227 9.816 23.808 11.992 23.808C12.5893 23.808 13.1013 23.7333 13.528 23.584C13.976 23.4133 14.3387 23.2427 14.616 23.072C14.9573 22.8373 15.1813 22.592 15.288 22.336C15.3947 22.08 15.448 21.76 15.448 21.376V18.24C15.448 17.3013 15.3627 16.608 15.192 16.16C15.0213 15.6907 14.7013 15.3707 14.232 15.2C13.784 15.0293 13.112 14.9333 12.216 14.912V14.272C12.6427 14.2933 13.144 14.3147 13.72 14.336C14.3173 14.336 14.936 14.3467 15.576 14.368C16.2373 14.368 16.8347 14.368 17.368 14.368C18.2 14.368 18.9573 14.3573 19.64 14.336C20.3227 14.3147 20.888 14.2933 21.336 14.272V14.912C20.9093 14.9333 20.5787 15.008 20.344 15.136C20.1307 15.264 19.992 15.52 19.928 15.904C19.864 16.288 19.832 16.8747 19.832 17.664V24H19.192C19.1707 23.6373 19.0853 23.2427 18.936 22.816C18.7867 22.3893 18.5627 22.176 18.264 22.176C18.1147 22.176 17.944 22.2187 17.752 22.304C17.56 22.368 17.2293 22.528 16.76 22.784C16.0133 23.2747 15.2133 23.68 14.36 24C13.528 24.2987 12.6107 24.448 11.608 24.448C9.21867 24.448 7.192 24 5.528 23.104C3.88533 22.1867 2.63733 20.8747 1.784 19.168C0.930667 17.44 0.504 15.3813 0.504 12.992C0.504 10.5387 0.984 8.40533 1.944 6.592C2.904 4.77867 4.216 3.38133 5.88 2.4C7.56533 1.39733 9.48533 0.895998 11.64 0.895998ZM40.0443 1.344C39.9589 2.21867 39.8949 3.072 39.8523 3.904C39.8309 4.71467 39.8203 5.33333 39.8203 5.76C39.8203 6.16533 39.8309 6.56 39.8523 6.944C39.8736 7.30667 39.8949 7.616 39.9163 7.872H39.1803C39.0096 6.4 38.7323 5.248 38.3483 4.416C37.9643 3.56267 37.4416 2.96533 36.7803 2.624C36.1403 2.26133 35.2976 2.08 34.2523 2.08H32.4923C31.8523 2.08 31.3616 2.13333 31.0203 2.24C30.6789 2.34667 30.4443 2.57067 30.3163 2.912C30.2096 3.25333 30.1562 3.776 30.1562 4.48V20.864C30.1562 21.5467 30.2096 22.0693 30.3163 22.432C30.4443 22.7733 30.6789 22.9973 31.0203 23.104C31.3616 23.2107 31.8523 23.264 32.4923 23.264H34.3163C35.4043 23.264 36.3109 23.0613 37.0363 22.656C37.7829 22.2507 38.3803 21.5893 38.8283 20.672C39.2763 19.7333 39.6069 18.4533 39.8203 16.832H40.5563C40.4923 17.4933 40.4603 18.3467 40.4603 19.392C40.4603 19.84 40.4709 20.4907 40.4923 21.344C40.5349 22.1973 40.5989 23.0827 40.6843 24C39.5963 23.9573 38.3696 23.936 37.0043 23.936C35.6389 23.9147 34.4229 23.904 33.3563 23.904C32.8656 23.904 32.2149 23.904 31.4043 23.904C30.6149 23.904 29.7509 23.9147 28.8123 23.936C27.8949 23.936 26.9563 23.9467 25.9963 23.968C25.0576 23.968 24.1616 23.9787 23.3083 24V23.36C24.0123 23.3173 24.5349 23.232 24.8763 23.104C25.2389 22.976 25.4736 22.72 25.5803 22.336C25.7083 21.952 25.7723 21.376 25.7723 20.608V4.736C25.7723 3.94666 25.7083 3.37067 25.5803 3.008C25.4736 2.624 25.2389 2.368 24.8763 2.24C24.5349 2.09067 24.0123 2.00533 23.3083 1.984V1.344C24.1616 1.36533 25.0576 1.38667 25.9963 1.408C26.9563 1.408 27.8949 1.41867 28.8123 1.44C29.7509 1.44 30.6149 1.44 31.4043 1.44C32.2149 1.44 32.8656 1.44 33.3563 1.44C34.3376 1.44 35.4469 1.44 36.6843 1.44C37.9429 1.41867 39.0629 1.38667 40.0443 1.344ZM34.8923 12.288C34.8923 12.288 34.8923 12.3947 34.8923 12.608C34.8923 12.8213 34.8923 12.928 34.8923 12.928H29.1963C29.1963 12.928 29.1963 12.8213 29.1963 12.608C29.1963 12.3947 29.1963 12.288 29.1963 12.288H34.8923ZM35.8203 8.064C35.7349 9.28 35.6923 10.208 35.6923 10.848C35.7136 11.488 35.7243 12.0747 35.7243 12.608C35.7243 13.1413 35.7349 13.728 35.7563 14.368C35.7776 15.008 35.8309 15.936 35.9163 17.152H35.1803C35.0736 16.4267 34.9029 15.744 34.6683 15.104C34.4549 14.4427 34.1029 13.92 33.6123 13.536C33.1429 13.1307 32.4603 12.928 31.5642 12.928V12.288C32.2256 12.288 32.7589 12.1493 33.1643 11.872C33.5909 11.5947 33.9323 11.2427 34.1883 10.816C34.4443 10.368 34.6363 9.90933 34.7643 9.44C34.9136 8.94933 35.0203 8.49067 35.0843 8.064H35.8203ZM53.4523 1.248L61.2283 21.312C61.5483 22.08 61.8896 22.6133 62.2523 22.912C62.6363 23.1893 62.9883 23.3387 63.3083 23.36V24C62.7536 23.9573 62.0816 23.936 61.2923 23.936C60.5243 23.9147 59.7349 23.904 58.9243 23.904C57.9856 23.904 57.1109 23.9147 56.3003 23.936C55.4896 23.936 54.8283 23.9573 54.3163 24V23.36C55.4043 23.3173 56.0976 23.136 56.3963 22.816C56.6949 22.4747 56.6309 21.76 56.2043 20.672L50.5723 5.472L51.1483 4.768L46.0283 18.048C45.6229 19.1147 45.3776 19.9893 45.2923 20.672C45.2069 21.3547 45.2603 21.888 45.4523 22.272C45.6443 22.656 45.9643 22.9333 46.4123 23.104C46.8603 23.2533 47.4149 23.3387 48.0763 23.36V24C47.3936 23.9573 46.7323 23.936 46.0923 23.936C45.4523 23.9147 44.8123 23.904 44.1723 23.904C43.7029 23.904 43.2549 23.9147 42.8283 23.936C42.4229 23.936 42.0602 23.9573 41.7402 24V23.36C42.2096 23.2533 42.6683 22.976 43.1163 22.528C43.5856 22.08 44.0336 21.3013 44.4603 20.192L51.7883 1.248C52.0443 1.26933 52.3216 1.28 52.6203 1.28C52.9189 1.28 53.1963 1.26933 53.4523 1.248ZM56.2363 14.784V15.424H46.7003L47.0203 14.784H56.2363ZM63.652 1.344C64.1853 1.36533 64.868 1.38667 65.7 1.408C66.532 1.42933 67.364 1.44 68.196 1.44C69.2413 1.44 70.2333 1.42933 71.172 1.408C72.1107 1.38667 72.772 1.376 73.156 1.376C75.076 1.376 76.6547 1.61067 77.892 2.08C79.1507 2.528 80.0893 3.168 80.708 4C81.3267 4.832 81.636 5.81333 81.636 6.944C81.636 7.648 81.4973 8.37333 81.22 9.12C80.9427 9.84533 80.4627 10.5173 79.78 11.136C79.0973 11.7547 78.1587 12.2667 76.964 12.672C75.7907 13.056 74.2867 13.248 72.452 13.248H69.38V12.608H72.132C73.476 12.608 74.5 12.3733 75.204 11.904C75.9293 11.4133 76.4093 10.7733 76.644 9.984C76.9 9.17333 77.028 8.27733 77.028 7.296C77.028 5.61067 76.6973 4.30933 76.036 3.392C75.3747 2.45333 74.2333 1.984 72.612 1.984C71.7373 1.984 71.1613 2.16533 70.884 2.528C70.628 2.89067 70.5 3.62667 70.5 4.736V20.608C70.5 21.376 70.564 21.952 70.692 22.336C70.82 22.72 71.0547 22.976 71.396 23.104C71.7587 23.232 72.2813 23.3173 72.964 23.36V24C72.4307 23.9573 71.748 23.936 70.916 23.936C70.084 23.9147 69.2413 23.904 68.388 23.904C67.428 23.904 66.532 23.9147 65.7 23.936C64.868 23.936 64.1853 23.9573 63.652 24V23.36C64.356 23.3173 64.8787 23.232 65.22 23.104C65.5827 22.976 65.8173 22.72 65.924 22.336C66.052 21.952 66.116 21.376 66.116 20.608V4.736C66.116 3.94666 66.052 3.37067 65.924 3.008C65.8173 2.624 65.5827 2.368 65.22 2.24C64.8787 2.09067 64.356 2.00533 63.652 1.984V1.344ZM69.38 12.704C70.3827 12.7467 71.2147 12.8 71.876 12.864C72.5587 12.9067 73.1347 12.9493 73.604 12.992C74.0947 13.0347 74.532 13.088 74.916 13.152C76.6867 13.3227 77.988 13.7387 78.82 14.4C79.6733 15.04 80.2387 16.0213 80.516 17.344L81.252 20.64C81.444 21.5147 81.6467 22.144 81.86 22.528C82.0947 22.8907 82.4253 23.0613 82.852 23.04C83.1507 23.04 83.4067 22.9653 83.62 22.816C83.8333 22.6453 84.0467 22.4213 84.26 22.144L84.708 22.528C84.1747 23.1893 83.6093 23.68 83.012 24C82.4147 24.2987 81.6573 24.448 80.74 24.448C79.716 24.448 78.852 24.2133 78.148 23.744C77.444 23.2533 76.964 22.336 76.708 20.992L76.1 17.792C75.9293 16.896 75.7267 16.1067 75.492 15.424C75.2787 14.7413 74.98 14.208 74.596 13.824C74.212 13.44 73.6467 13.248 72.9 13.248H69.444L69.38 12.704ZM101.933 1.344V1.984C101.25 2.00533 100.727 2.09067 100.365 2.24C100.023 2.368 99.7888 2.624 99.6608 3.008C99.5328 3.37067 99.4688 3.94666 99.4688 4.736V20.608C99.4688 21.376 99.5328 21.952 99.6608 22.336C99.7888 22.72 100.023 22.976 100.365 23.104C100.727 23.232 101.25 23.3173 101.933 23.36V24C101.399 23.9573 100.717 23.936 99.8848 23.936C99.0528 23.9147 98.2101 23.904 97.3568 23.904C96.3968 23.904 95.5008 23.9147 94.6688 23.936C93.8368 23.936 93.1541 23.9573 92.6208 24V23.36C93.3248 23.3173 93.8474 23.232 94.1888 23.104C94.5514 22.976 94.7861 22.72 94.8928 22.336C95.0208 21.952 95.0848 21.376 95.0848 20.608V4.736C95.0848 3.94666 95.0208 3.37067 94.8928 3.008C94.7861 2.624 94.5514 2.368 94.1888 2.24C93.8474 2.09067 93.3248 2.00533 92.6208 1.984V1.344C93.1541 1.36533 93.8368 1.38667 94.6688 1.408C95.5008 1.42933 96.3968 1.44 97.3568 1.44C98.2101 1.44 99.0528 1.42933 99.8848 1.408C100.717 1.38667 101.399 1.36533 101.933 1.344ZM123.157 1.344C123.072 2.32533 123.008 3.28533 122.965 4.224C122.944 5.14133 122.933 5.84533 122.933 6.336C122.933 6.82667 122.944 7.28533 122.965 7.712C122.986 8.13867 123.008 8.512 123.029 8.832H122.293C121.994 7.12533 121.632 5.792 121.205 4.832C120.778 3.85067 120.213 3.14667 119.509 2.72C118.826 2.29333 117.92 2.08 116.789 2.08H115.765V20.32C115.765 21.1947 115.84 21.8453 115.989 22.272C116.16 22.6987 116.49 22.9867 116.981 23.136C117.472 23.264 118.186 23.3387 119.125 23.36V24C118.485 23.9573 117.653 23.936 116.629 23.936C115.605 23.9147 114.56 23.904 113.493 23.904C112.384 23.904 111.338 23.9147 110.357 23.936C109.397 23.936 108.618 23.9573 108.021 24V23.36C108.938 23.3387 109.642 23.264 110.133 23.136C110.624 22.9867 110.954 22.6987 111.125 22.272C111.296 21.8453 111.381 21.1947 111.381 20.32V2.08H110.325C109.216 2.08 108.309 2.29333 107.605 2.72C106.901 3.14667 106.336 3.85067 105.909 4.832C105.482 5.792 105.13 7.12533 104.853 8.832H104.117C104.16 8.512 104.181 8.13867 104.181 7.712C104.202 7.28533 104.213 6.82667 104.213 6.336C104.213 5.84533 104.192 5.14133 104.149 4.224C104.128 3.28533 104.074 2.32533 103.989 1.344C104.928 1.36533 105.962 1.38667 107.093 1.408C108.224 1.42933 109.354 1.44 110.485 1.44C111.616 1.44 112.65 1.44 113.589 1.44C114.506 1.44 115.53 1.44 116.661 1.44C117.792 1.44 118.922 1.42933 120.053 1.408C121.184 1.38667 122.218 1.36533 123.157 1.344ZM152.155 1.344V1.984C151.472 2.048 150.95 2.208 150.587 2.464C150.246 2.69866 150.011 3.08267 149.883 3.616C149.755 4.128 149.691 4.864 149.691 5.824V14.688C149.691 16.1173 149.595 17.3973 149.403 18.528C149.232 19.6587 148.891 20.64 148.379 21.472C147.846 22.368 147.046 23.0933 145.979 23.648C144.934 24.1813 143.654 24.448 142.139 24.448C141.115 24.448 140.102 24.3307 139.099 24.096C138.118 23.8613 137.254 23.424 136.507 22.784C135.846 22.2293 135.323 21.6 134.939 20.896C134.576 20.192 134.331 19.3493 134.203 18.368C134.075 17.3653 134.011 16.1707 134.011 14.784V4.736C134.011 3.94666 133.947 3.37067 133.819 3.008C133.712 2.624 133.478 2.368 133.115 2.24C132.774 2.09067 132.251 2.00533 131.547 1.984V1.344C132.08 1.36533 132.763 1.38667 133.595 1.408C134.427 1.42933 135.323 1.44 136.283 1.44C137.158 1.44 138.022 1.42933 138.875 1.408C139.728 1.38667 140.432 1.36533 140.987 1.344V1.984C140.262 2.00533 139.707 2.09067 139.323 2.24C138.96 2.368 138.715 2.624 138.587 3.008C138.459 3.37067 138.395 3.94666 138.395 4.736V16.32C138.395 17.3867 138.459 18.3573 138.587 19.232C138.736 20.0853 138.971 20.8213 139.291 21.44C139.632 22.0587 140.102 22.528 140.699 22.848C141.318 23.168 142.096 23.328 143.035 23.328C144.592 23.328 145.798 22.976 146.651 22.272C147.504 21.568 148.102 20.5867 148.443 19.328C148.784 18.0693 148.955 16.64 148.955 15.04V6.08C148.955 5.03467 148.88 4.23467 148.731 3.68C148.582 3.12533 148.283 2.72 147.835 2.464C147.408 2.208 146.768 2.048 145.915 1.984V1.344C146.32 1.36533 146.843 1.38667 147.483 1.408C148.144 1.42933 148.752 1.44 149.307 1.44C149.84 1.44 150.363 1.42933 150.875 1.408C151.408 1.38667 151.835 1.36533 152.155 1.344ZM153.965 1.344C154.498 1.36533 155.181 1.38667 156.013 1.408C156.845 1.42933 157.677 1.44 158.509 1.44C159.554 1.44 160.546 1.42933 161.485 1.408C162.423 1.38667 163.085 1.376 163.469 1.376C166.327 1.376 168.45 1.96267 169.837 3.136C171.245 4.30933 171.949 5.824 171.949 7.68C171.949 8.448 171.81 9.25867 171.533 10.112C171.255 10.944 170.775 11.7227 170.093 12.448C169.41 13.152 168.471 13.728 167.277 14.176C166.103 14.624 164.599 14.848 162.765 14.848H159.565V14.208H162.445C163.789 14.208 164.813 13.92 165.517 13.344C166.242 12.768 166.722 12.0107 166.957 11.072C167.213 10.1333 167.341 9.12 167.341 8.032C167.341 6.00533 167.01 4.49067 166.349 3.488C165.687 2.48533 164.546 1.984 162.925 1.984C162.05 1.984 161.474 2.16533 161.197 2.528C160.941 2.89067 160.812 3.62667 160.812 4.736V20.48C160.812 21.2907 160.898 21.8987 161.069 22.304C161.239 22.7093 161.57 22.976 162.061 23.104C162.551 23.232 163.255 23.3067 164.173 23.328V24C163.554 23.9573 162.754 23.936 161.773 23.936C160.791 23.9147 159.778 23.904 158.733 23.904C157.837 23.904 156.973 23.9147 156.141 23.936C155.309 23.936 154.583 23.9573 153.965 24V23.36C154.669 23.3173 155.191 23.232 155.533 23.104C155.895 22.976 156.13 22.72 156.237 22.336C156.365 21.952 156.429 21.376 156.429 20.608V4.736C156.429 3.94666 156.365 3.37067 156.237 3.008C156.13 2.624 155.895 2.368 155.533 2.24C155.191 2.09067 154.669 2.00533 153.965 1.984V1.344Z" fill="#F9FAFF"/>
</svg>
